
<svg version="1.0" xmlns="http://www.w3.org/2000/svg"
 width="1015.000000pt" height="570.000000pt" viewBox="0 0 1015.000000 570.000000"
 preserveAspectRatio="xMidYMid meet">
<metadata>
Created by potrace 1.16, written by Peter Selinger 2001-2019
</metadata>
<g transform="translate(0.000000,570.000000) scale(0.100000,-0.100000)"
fill="#000000" stroke="none">
<path d="M0 2850 l0 -2850 5075 0 5075 0 0 2850 0 2850 -5075 0 -5075 0 0
-2850z m6230 1960 l0 -90 -50 0 c-54 0 -70 15 -70 65 0 45 17 65 55 65 27 0
35 4 35 18 0 20 8 32 22 32 4 0 8 -40 8 -90z m-1839 24 c17 -21 17 -78 -1 -99
-9 -11 -25 -15 -47 -13 -30 4 -33 2 -33 -24 0 -18 -5 -28 -15 -28 -12 0 -15
17 -15 89 l0 88 49 1 c33 1 53 -3 62 -14z m-2286 -836 c-6 -34 -5 -40 7 -35 8
3 41 8 73 12 52 7 57 6 44 -8 -8 -8 -17 -13 -21 -11 -4 3 -5 -5 -3 -16 3 -13
0 -18 -7 -14 -7 5 -9 2 -5 -8 3 -9 -2 -23 -13 -33 -11 -10 -17 -21 -15 -26 3
-4 0 -11 -6 -15 -7 -4 -9 -3 -5 4 3 6 2 13 -4 17 -5 3 -10 2 -10 -3 0 -4 -10
-18 -21 -31 -12 -12 -40 -59 -64 -103 -23 -44 -46 -78 -51 -76 -7 3 -7 36 1
79 5 22 -46 20 -72 -4 -19 -16 -22 -13 -95 115 -42 73 -75 135 -72 139 2 4 36
0 76 -7 91 -18 85 -18 92 10 5 20 16 26 78 39 106 22 101 23 93 -25z m3935 18
c16 -21 9 -56 -15 -72 -17 -11 -25 -11 -45 0 -36 18 -106 -15 -114 -55 -3 -16
-14 -30 -26 -34 -16 -5 -20 -16 -22 -53 l-1 -47 -4 43 c-3 28 -12 50 -28 67
-19 18 -23 29 -17 46 11 29 43 40 73 25 20 -10 30 -8 67 12 24 14 42 31 42 41
0 38 64 57 90 27z m1800 -148 c22 -16 25 -25 24 -74 -1 -53 1 -59 37 -95 28
-28 49 -39 82 -44 51 -8 114 10 131 38 6 9 15 17 20 17 4 0 3 -7 -5 -16 -10
-13 -10 -17 1 -24 8 -5 11 -13 6 -17 -5 -4 -11 -2 -13 5 -3 6 -10 12 -16 12
-6 0 2 -13 17 -29 l28 -29 -42 -22 c-111 -57 -263 -3 -319 113 -23 47 -28 128
-11 172 10 27 13 27 60 -7z m-1976 -153 c6 -19 24 -40 52 -57 24 -15 44 -23
44 -18 0 20 36 29 61 16 20 -11 30 -10 62 6 22 11 41 17 44 14 3 -2 -13 -14
-35 -25 -29 -15 -41 -28 -45 -50 -11 -53 -79 -49 -93 5 -4 16 -21 32 -46 45
-34 17 -45 19 -68 9 -39 -16 -70 1 -70 38 0 37 18 54 55 50 24 -2 32 -9 39
-33z m3212 -2382 c63 -34 97 -66 129 -125 26 -46 30 -63 30 -128 -1 -117 -49
-194 -159 -253 -41 -22 -42 -22 -626 -22 -584 0 -585 0 -626 22 -65 35 -103
71 -130 126 -79 154 -5 332 163 393 31 11 146 13 608 11 566 -2 570 -2 611
-24z"/>
</g>
</svg>
